<svg xmlns="http://www.w3.org/2000/svg" width="300" height="110" viewBox="0 0 300 110"><path fill="#9150AE" d="M300-40.4H-29.9v65c0 8.3 6.7 15 15 15s15 6.7 15 15v10c0 8.3 6.7 15 15 15s15 6.7 15 15 6.7 15 15 15 15-6.7 15-15v-40c0-8.3 6.7-15 15-15s15 6.7 15 15v10c0 8.3 6.7 15 15 15s15-6.7 15-15v-30c0-8.3 6.7-15 15-15s15 6.7 15 15 6.7 15 15 15 15 6.7 15 15v10c0 8.3 6.7 15 15 15s15-6.7 15-15 6.7-15 15-15 15 6.7 15 15v20c0 8.3 6.7 15 15 15s15-6.7 15-15v-50c0-8.3 6.7-15 15-15s15 6.7 15 15v14c0 8.3 6.7 15 15 15s15-6.7 15-15v-99H300z"/></svg>