<?xml version="1.0" encoding="utf-8"?>
<!-- Generator: Adobe Illustrator 18.1.1, SVG Export Plug-In . SVG Version: 6.00 Build 0)  -->
<svg version="1.1" id="Layer_1" xmlns="http://www.w3.org/2000/svg" xmlns:xlink="http://www.w3.org/1999/xlink" x="0px" y="0px"
	 width="300" height="110" viewBox="0 0 300 110" enable-background="new 0 0 300 110" xml:space="preserve">
<path fill="#9150AE" d="M300-40.4h-30h-30h-30h-30h-30h-30H90H60H30H0h-29.9v65c0,8.3,6.7,15,15,15h0c8.3,0,15,6.7,15,15v10
	c0,8.3,6.7,15,15,15h0c8.3,0,15,6.7,15,15v0c0,8.3,6.7,15,15,15h0c8.3,0,15-6.7,15-15v-40c0-8.3,6.7-15,15-15h0c8.3,0,15,6.7,15,15
	v10c0,8.3,6.7,15,15,15h0c8.3,0,15-6.7,15-15v-30c0-8.3,6.7-15,15-15h0c8.3,0,15,6.7,15,15v0c0,8.3,6.7,15,15,15h0
	c8.3,0,15,6.7,15,15v10c0,8.3,6.7,15,15,15h0c8.3,0,15-6.7,15-15v0c0-8.3,6.7-15,15-15h0c8.3,0,15,6.7,15,15v20c0,8.3,6.7,15,15,15
	h0c8.3,0,15-6.7,15-15v-50c0-8.3,6.7-15,15-15h0c8.3,0,15,6.7,15,15v14c0,8.3,6.7,15,15,15h0c8.3,0,15-6.7,15-15v-99H300z"/>
</svg>
